<?xml version="1.0" encoding="UTF-8" standalone="no"?>
<svg
   xmlns:dc="http://purl.org/dc/elements/1.1/"
   xmlns:cc="http://creativecommons.org/ns#"
   xmlns:rdf="http://www.w3.org/1999/02/22-rdf-syntax-ns#"
   xmlns:svg="http://www.w3.org/2000/svg"
   xmlns="http://www.w3.org/2000/svg"
   viewBox="0 0 800 150"
   height="150"
   width="800"
   xml:space="preserve"
   id="svg10"
   version="1.1"><metadata
     id="metadata16"><rdf:RDF><cc:Work
         rdf:about=""><dc:format>image/svg+xml</dc:format><dc:type
           rdf:resource="http://purl.org/dc/dcmitype/StillImage" /><dc:title></dc:title></cc:Work></rdf:RDF></metadata><defs
     id="defs14"><clipPath
       id="clipPath26"
       clipPathUnits="userSpaceOnUse"><path
         id="path24"
         d="M 0,792 H 612 V 0 H 0 Z" /></clipPath><clipPath
       id="clipPath74"
       clipPathUnits="userSpaceOnUse"><path
         id="path72"
         d="M 122,324 H 498.999 V 768 H 122 Z" /></clipPath><clipPath
       id="clipPath90"
       clipPathUnits="userSpaceOnUse"><path
         id="path88"
         d="M 276.451,799.437 H 386.648 V 459.776 H 276.451 Z" /></clipPath><clipPath
       id="clipPath110"
       clipPathUnits="userSpaceOnUse"><path
         id="path108"
         d="M 0,792 H 612 V 0 H 0 Z" /></clipPath></defs><g
     transform="matrix(1.3333333,0,0,-1.3333333,0,150)"
     id="g18"><g
       transform="translate(76.980317,-18.79191)"
       id="g3960"><g
         id="g28"
         transform="translate(131.4915,46.1964)"><path
           d="M 0,0 H 4.953 C 6.03,0 6.889,0.083 7.531,0.252 8.17,0.419 8.658,0.722 8.996,1.161 9.333,1.599 9.568,2.24 9.704,3.082 9.838,3.924 9.906,5.019 9.906,6.368 v 19.509 c 0,2.225 -0.27,3.756 -0.808,4.6 -0.541,0.842 -1.82,1.264 -3.842,1.264 H 0 Z m 0,40.939 h 5.256 c 1.886,0 3.134,0.37 3.74,1.112 0.607,0.74 0.91,2.088 0.91,4.044 v 7.48 c 0,1.213 -0.05,2.224 -0.151,3.032 -0.102,0.809 -0.321,1.449 -0.657,1.921 -0.339,0.47 -0.844,0.791 -1.517,0.961 -0.674,0.167 -1.551,0.252 -2.628,0.252 H 0 Z m 14.455,-4.651 c 1.077,-0.269 2.055,-0.64 2.931,-1.11 0.875,-0.473 1.633,-1.198 2.275,-2.174 0.639,-0.977 1.127,-2.242 1.465,-3.79 0.337,-1.551 0.506,-3.539 0.506,-5.965 V 6.368 c 0,-3.573 -0.22,-6.437 -0.657,-8.592 C 20.536,-4.382 19.694,-6.033 18.448,-7.177 17.2,-8.324 15.499,-9.083 13.343,-9.452 11.185,-9.823 8.39,-10.008 4.953,-10.008 H -11.625 V 69.849 H 4.953 c 3.437,0 6.232,-0.186 8.39,-0.555 2.156,-0.372 3.857,-1.13 5.105,-2.275 1.246,-1.147 2.088,-2.78 2.527,-4.902 0.437,-2.123 0.657,-4.971 0.657,-8.542 v -5.964 c 0,-2.09 -0.253,-3.809 -0.758,-5.155 -0.506,-1.349 -1.112,-2.426 -1.82,-3.235 -0.707,-0.809 -1.483,-1.415 -2.325,-1.82 -0.843,-0.404 -1.601,-0.641 -2.274,-0.707 z"
           style="fill:#343434;fill-opacity:1;fill-rule:nonzero;stroke:none"
           id="path30" /></g><g
         id="g32"
         transform="translate(176.5747,106.6445)"><path
           d="M 0,0 C -1.011,0 -1.837,-0.085 -2.477,-0.252 -3.118,-0.421 -3.624,-0.725 -3.993,-1.163 -4.364,-1.601 -4.6,-2.241 -4.701,-3.082 -4.802,-3.926 -4.852,-5.02 -4.852,-6.368 v -36.795 h 9.805 v 36.795 c 0,1.348 -0.068,2.442 -0.202,3.286 C 4.615,-2.241 4.38,-1.601 4.044,-1.163 3.706,-0.725 3.2,-0.421 2.527,-0.252 1.853,-0.085 1.011,0 0,0 m 4.953,-70.456 v 17.791 h -9.805 v -17.791 h -11.322 v 64.088 c 0,3.705 0.218,6.654 0.657,8.845 0.438,2.189 1.264,3.874 2.477,5.055 1.213,1.178 2.881,1.953 5.004,2.325 2.122,0.369 4.834,0.555 8.137,0.555 3.301,0 6.015,-0.202 8.138,-0.607 2.122,-0.404 3.806,-1.213 5.054,-2.426 1.246,-1.213 2.105,-2.915 2.577,-5.104 0.471,-2.191 0.708,-5.071 0.708,-8.643 v -64.088 z"
           style="fill:#343434;fill-opacity:1;fill-rule:nonzero;stroke:none"
           id="path34" /></g><g
         id="g36"
         transform="translate(246.626,116.0457)"><path
           d="m 0,0 v -79.858 h -9.502 v 56.407 h -0.405 l -7.379,-56.407 h -10.412 l -7.379,56.811 h -0.404 v -56.811 h -9.604 V 0 h 16.275 l 6.065,-53.676 h 0.405 L -16.174,0 Z"
           style="fill:#343434;fill-opacity:1;fill-rule:nonzero;stroke:none"
           id="path38" /></g><g
         id="g40"
         transform="translate(267.2468,46.1964)"><path
           d="M 0,0 H 4.953 C 6.03,0 6.889,0.083 7.531,0.252 8.17,0.419 8.658,0.722 8.996,1.161 9.333,1.599 9.568,2.24 9.704,3.082 9.838,3.924 9.906,5.019 9.906,6.368 v 19.509 c 0,2.225 -0.27,3.756 -0.808,4.6 -0.541,0.842 -1.82,1.264 -3.842,1.264 H 0 Z m 0,40.939 h 5.256 c 1.886,0 3.134,0.37 3.74,1.112 0.607,0.74 0.91,2.088 0.91,4.044 v 7.48 c 0,1.213 -0.05,2.224 -0.151,3.032 -0.102,0.809 -0.321,1.449 -0.657,1.921 -0.339,0.47 -0.844,0.791 -1.517,0.961 -0.674,0.167 -1.551,0.252 -2.628,0.252 H 0 Z m 14.455,-4.651 c 1.077,-0.269 2.055,-0.64 2.931,-1.11 0.875,-0.473 1.633,-1.198 2.275,-2.174 0.639,-0.977 1.127,-2.242 1.465,-3.79 0.337,-1.551 0.506,-3.539 0.506,-5.965 V 6.368 c 0,-3.573 -0.22,-6.437 -0.657,-8.592 C 20.536,-4.382 19.694,-6.033 18.448,-7.177 17.2,-8.324 15.499,-9.083 13.343,-9.452 11.185,-9.823 8.39,-10.008 4.953,-10.008 H -11.625 V 69.849 H 4.953 c 3.437,0 6.232,-0.186 8.39,-0.555 2.156,-0.372 3.857,-1.13 5.105,-2.275 1.246,-1.147 2.088,-2.78 2.527,-4.902 0.437,-2.123 0.657,-4.971 0.657,-8.542 v -5.964 c 0,-2.09 -0.253,-3.809 -0.758,-5.155 -0.506,-1.349 -1.112,-2.426 -1.82,-3.235 -0.707,-0.809 -1.483,-1.415 -2.325,-1.82 -0.843,-0.404 -1.601,-0.641 -2.274,-0.707 z"
           style="fill:#343434;fill-opacity:1;fill-rule:nonzero;stroke:none"
           id="path42" /></g><g
         id="g44"
         transform="translate(312.33,106.6445)"><path
           d="M 0,0 C -1.011,0 -1.837,-0.085 -2.477,-0.252 -3.118,-0.421 -3.624,-0.725 -3.993,-1.163 -4.364,-1.601 -4.6,-2.241 -4.701,-3.082 -4.802,-3.926 -4.852,-5.02 -4.852,-6.368 v -36.795 h 9.805 v 36.795 c 0,1.348 -0.069,2.442 -0.202,3.286 C 4.615,-2.241 4.38,-1.601 4.043,-1.163 3.705,-0.725 3.2,-0.421 2.527,-0.252 1.853,-0.085 1.011,0 0,0 m 4.953,-70.456 v 17.791 h -9.805 v -17.791 h -11.322 v 64.088 c 0,3.705 0.218,6.654 0.657,8.845 0.438,2.189 1.264,3.874 2.477,5.055 1.213,1.178 2.881,1.953 5.004,2.325 2.122,0.369 4.834,0.555 8.137,0.555 3.301,0 6.015,-0.202 8.138,-0.607 2.122,-0.404 3.806,-1.213 5.054,-2.426 1.245,-1.213 2.105,-2.915 2.577,-5.104 0.47,-2.191 0.707,-5.071 0.707,-8.643 v -64.088 z"
           style="fill:#343434;fill-opacity:1;fill-rule:nonzero;stroke:none"
           id="path46" /></g><g
         id="g48"
         transform="translate(360.8497,36.188)"><path
           d="m 0,0 h -23.554 v 79.858 h 11.626 V 10.109 H 0 Z"
           style="fill:#343434;fill-opacity:1;fill-rule:nonzero;stroke:none"
           id="path50" /></g><path
         d="m 378.438,36.188 h -11.625 v 79.858 h 11.625 z"
         style="fill:#343434;fill-opacity:1;fill-rule:nonzero;stroke:none"
         id="path52" /><g
         id="g54"
         transform="translate(410.0763,36.188)"><path
           d="m 0,0 -12.029,49.835 h -0.404 V 0 H -22.442 V 79.858 H -9.603 L 1.921,28.608 h 0.404 v 51.25 H 12.433 V 0 Z"
           style="fill:#343434;fill-opacity:1;fill-rule:nonzero;stroke:none"
           id="path56" /></g><g
         id="g58"
         transform="translate(447.0729,106.6445)"><path
           d="M 0,0 C -1.011,0 -1.837,-0.085 -2.477,-0.252 -3.119,-0.421 -3.624,-0.725 -3.994,-1.163 -4.364,-1.601 -4.6,-2.241 -4.701,-3.082 -4.802,-3.926 -4.852,-5.02 -4.852,-6.368 v -36.795 h 9.805 v 36.795 c 0,1.348 -0.069,2.442 -0.202,3.286 C 4.615,-2.241 4.38,-1.601 4.043,-1.163 3.705,-0.725 3.2,-0.421 2.527,-0.252 1.853,-0.085 1.011,0 0,0 m 4.953,-70.456 v 17.791 h -9.805 v -17.791 h -11.323 v 64.088 c 0,3.705 0.219,6.654 0.658,8.845 0.438,2.189 1.264,3.874 2.477,5.055 1.213,1.178 2.88,1.953 5.003,2.325 2.123,0.369 4.835,0.555 8.138,0.555 3.301,0 6.015,-0.202 8.138,-0.607 2.122,-0.404 3.806,-1.213 5.054,-2.426 1.245,-1.213 2.105,-2.915 2.577,-5.104 0.47,-2.191 0.707,-5.071 0.707,-8.643 v -64.088 z"
           style="fill:#343434;fill-opacity:1;fill-rule:nonzero;stroke:none"
           id="path60" /></g><g
         id="g62"
         transform="translate(492.0558,90.1683)"><path
           d="m 0,0 v 9.906 c 0,1.415 -0.05,2.561 -0.151,3.437 -0.101,0.875 -0.322,1.532 -0.658,1.971 -0.338,0.437 -0.843,0.741 -1.516,0.91 -0.675,0.167 -1.551,0.252 -2.628,0.252 -1.147,0 -2.039,-0.085 -2.679,-0.252 -0.642,-0.169 -1.13,-0.473 -1.466,-0.91 -0.338,-0.439 -0.556,-1.096 -0.657,-1.971 -0.101,-0.876 -0.151,-2.022 -0.151,-3.437 V 2.021 c 0,-1.01 0.066,-1.854 0.202,-2.527 0.134,-0.675 0.419,-1.281 0.859,-1.819 0.438,-0.54 1.078,-1.078 1.92,-1.617 0.842,-0.541 2.004,-1.181 3.488,-1.921 3.503,-1.82 6.267,-3.371 8.289,-4.65 2.022,-1.281 3.538,-2.578 4.549,-3.892 1.01,-1.314 1.651,-2.797 1.92,-4.448 0.269,-1.652 0.405,-3.791 0.405,-6.419 V -38.11 c 0,-3.706 -0.22,-6.671 -0.657,-8.895 -0.439,-2.224 -1.264,-3.927 -2.477,-5.105 -1.213,-1.18 -2.915,-1.953 -5.104,-2.325 -2.191,-0.37 -5.004,-0.556 -8.441,-0.556 -3.235,0 -5.898,0.186 -7.986,0.556 -2.09,0.372 -3.74,1.145 -4.953,2.325 -1.213,1.178 -2.056,2.881 -2.527,5.105 -0.473,2.224 -0.709,5.189 -0.709,8.895 v 15.87 h 11.323 v -15.87 c 0,-1.415 0.05,-2.544 0.151,-3.385 0.101,-0.844 0.319,-1.502 0.657,-1.972 0.336,-0.472 0.824,-0.794 1.466,-0.961 0.64,-0.168 1.498,-0.252 2.578,-0.252 2.155,0 3.52,0.404 4.093,1.213 0.573,0.809 0.86,2.593 0.86,5.357 v 12.029 c 0,1.348 -0.05,2.46 -0.151,3.336 -0.101,0.876 -0.372,1.651 -0.81,2.326 -0.438,0.673 -1.096,1.297 -1.971,1.869 -0.877,0.572 -2.056,1.265 -3.537,2.073 -3.506,1.82 -6.252,3.369 -8.239,4.65 -1.988,1.279 -3.487,2.577 -4.498,3.891 -1.011,1.314 -1.652,2.763 -1.922,4.347 -0.269,1.582 -0.404,3.52 -0.404,5.813 v 7.682 c 0,3.705 0.218,6.671 0.658,8.895 0.438,2.224 1.264,3.944 2.477,5.157 1.213,1.213 2.896,2.004 5.054,2.375 2.155,0.369 4.953,0.556 8.39,0.556 3.368,0 6.116,-0.187 8.239,-0.556 2.122,-0.371 3.772,-1.162 4.953,-2.375 1.178,-1.213 1.986,-2.933 2.426,-5.157 0.437,-2.224 0.656,-5.19 0.656,-8.895 V 0 Z"
           style="fill:#343434;fill-opacity:1;fill-rule:nonzero;stroke:none"
           id="path64" /></g></g><g
       style="fill:#3f8f85"
       transform="matrix(0.45321038,0,0,0.45321038,-37.435793,-42.62333)"
       id="g104"><g
         style="fill:#3f8f85"
         clip-path="url(#clipPath110)"
         id="g106"><g
           style="fill:#3f8f85"
           transform="translate(173.6322,132.5305)"
           id="g112"><path
             id="path114"
             style="fill:#3f8f85;fill-opacity:1;fill-rule:nonzero;stroke:none"
             d="M 0,0 H -50.38 V 176.105 H -0.223 V 154.928 H -24.744 V 129.292 H -0.892 V 109.007 H -24.744 V 22.069 H 0 Z" /></g><g
           style="fill:#3f8f85"
           transform="translate(238.276,132.5305)"
           id="g116"><path
             id="path118"
             style="fill:#3f8f85;fill-opacity:1;fill-rule:nonzero;stroke:none"
             d="m 0,0 -26.527,109.898 h -0.891 V 0 h -22.069 v 176.105 h 28.31 L 4.236,63.086 H 5.127 V 176.105 H 27.419 V 0 Z" /></g><g
           style="fill:#3f8f85"
           transform="translate(342.5996,287.2352)"
           id="g120"><path
             id="path122"
             style="fill:#3f8f85;fill-opacity:1;fill-rule:nonzero;stroke:none"
             d="M 0,0 H -19.171 V -154.705 H -44.806 V 0 H -64.2 V 21.4 H 0 Z" /></g><g
           style="fill:#3f8f85"
           transform="translate(380.9384,239.7536)"
           id="g124"><path
             id="path126"
             style="fill:#3f8f85;fill-opacity:1;fill-rule:nonzero;stroke:none"
             d="m 0,0 h 11.592 c 4.159,0 6.91,0.815 8.248,2.452 1.337,1.634 2.006,4.605 2.006,8.917 v 21.623 c 0,2.821 -0.112,5.089 -0.335,6.799 -0.222,1.707 -0.707,3.083 -1.449,4.124 -0.744,1.038 -1.86,1.745 -3.343,2.118 -1.487,0.369 -3.42,0.557 -5.796,0.557 L 0,46.59 Z M 0,-107.223 H -25.636 V 68.882 h 36.559 c 7.579,0 13.744,-0.411 18.502,-1.226 4.754,-0.818 8.506,-2.529 11.257,-5.128 2.749,-2.601 4.605,-6.241 5.573,-10.922 0.965,-4.681 1.449,-10.888 1.449,-18.614 V 14.49 c 0,-4.608 -0.484,-8.359 -1.449,-11.257 -0.968,-2.898 -2.229,-5.239 -3.789,-7.022 -1.561,-1.783 -3.27,-3.087 -5.127,-3.901 -1.86,-0.819 -3.678,-1.449 -5.462,-1.895 v -0.892 c 2.376,-0.595 4.532,-1.376 6.465,-2.34 1.929,-0.969 3.601,-2.453 5.015,-4.458 1.411,-2.007 2.488,-4.57 3.233,-7.691 0.742,-3.121 1.114,-7.134 1.114,-12.038 v -70.219 H 21.846 v 74.231 c 0,4.755 -0.596,8.061 -1.784,9.921 -1.19,1.856 -4.012,2.786 -8.47,2.786 H 0 Z" /></g><g
           style="fill:#3f8f85"
           transform="translate(497.3013,132.5305)"
           id="g128"><path
             id="path130"
             style="fill:#3f8f85;fill-opacity:1;fill-rule:nonzero;stroke:none"
             d="M 0,0 H -50.38 V 176.105 H -0.223 V 154.928 H -24.744 V 129.292 H -0.892 V 109.007 H -24.744 V 22.069 H 0 Z" /></g></g></g></g></svg>