<?xml version="1.0" encoding="UTF-8" standalone="no"?>
<!-- Created with Inkscape (http://www.inkscape.org/) -->

<svg
   xmlns:dc="http://purl.org/dc/elements/1.1/"
   xmlns:cc="http://creativecommons.org/ns#"
   xmlns:rdf="http://www.w3.org/1999/02/22-rdf-syntax-ns#"
   xmlns:svg="http://www.w3.org/2000/svg"
   xmlns="http://www.w3.org/2000/svg"
   xmlns:sodipodi="http://sodipodi.sourceforge.net/DTD/sodipodi-0.dtd"
   xmlns:inkscape="http://www.inkscape.org/namespaces/inkscape"
   version="1.1"
   id="svg10"
   xml:space="preserve"
   width="600"
   height="600"
   viewBox="0 0 600 600"
   sodipodi:docname="ENTRE BAMBALINAS_solo_logo.svg"
   inkscape:version="0.92.2 (5c3e80d, 2017-08-06)"><metadata
     id="metadata16"><rdf:RDF><cc:Work
         rdf:about=""><dc:format>image/svg+xml</dc:format><dc:type
           rdf:resource="http://purl.org/dc/dcmitype/StillImage" /><dc:title></dc:title></cc:Work></rdf:RDF></metadata><defs
     id="defs14"><clipPath
       clipPathUnits="userSpaceOnUse"
       id="clipPath26"><path
         d="M 0,792 H 612 V 0 H 0 Z"
         id="path24"
         inkscape:connector-curvature="0" /></clipPath><clipPath
       clipPathUnits="userSpaceOnUse"
       id="clipPath74"><path
         d="M 122,324 H 498.999 V 768 H 122 Z"
         id="path72"
         inkscape:connector-curvature="0" /></clipPath><clipPath
       clipPathUnits="userSpaceOnUse"
       id="clipPath90"><path
         d="M 276.451,799.437 H 386.648 V 459.776 H 276.451 Z"
         id="path88"
         inkscape:connector-curvature="0" /></clipPath><clipPath
       clipPathUnits="userSpaceOnUse"
       id="clipPath110"><path
         d="M 0,792 H 612 V 0 H 0 Z"
         id="path108"
         inkscape:connector-curvature="0" /></clipPath></defs><sodipodi:namedview
     pagecolor="#ffffff"
     bordercolor="#666666"
     borderopacity="1"
     objecttolerance="10"
     gridtolerance="10"
     guidetolerance="10"
     inkscape:pageopacity="0"
     inkscape:pageshadow="2"
     inkscape:window-width="1366"
     inkscape:window-height="705"
     id="namedview12"
     showgrid="false"
     inkscape:zoom="0.50757576"
     inkscape:cx="408"
     inkscape:cy="532.00523"
     inkscape:window-x="-8"
     inkscape:window-y="-8"
     inkscape:window-maximized="1"
     inkscape:current-layer="g18" /><g
     id="g18"
     inkscape:groupmode="layer"
     inkscape:label="ENTRE BAMBALINAS"
     transform="matrix(1.3333333,0,0,-1.3333333,0,600)"><path
       d="M 414.77612,1.880589 H 37.776117 V 445.88059 H 414.77612 Z"
       style="fill:#ae1736;fill-opacity:1;fill-rule:nonzero;stroke:none"
       id="path66"
       inkscape:connector-curvature="0" /><g
       id="g68"
       transform="translate(-84.223883,-322.11941)"><g
         id="g70"
         clip-path="url(#clipPath74)"><g
           id="g76"
           transform="translate(320.0839,799.4374)"><path
             d="m 0,0 c -53.262,64.361 -133.749,105.37 -223.817,105.37 -160.373,0 -290.381,-130.008 -290.381,-290.382 0,-160.373 130.008,-290.381 290.381,-290.381 103.525,0 194.382,54.185 245.797,135.731 -41.021,50.62 -65.613,115.099 -65.613,185.33 C -43.633,-97.74 -27.661,-44.884 0,0"
             style="fill:#491a47;fill-opacity:1;fill-rule:nonzero;stroke:none"
             id="path78"
             inkscape:connector-curvature="0" /></g><g
           id="g80"
           transform="translate(571.0406,939.6949)"><path
             d="m 0,0 c -106.105,0 -199.094,-56.105 -250.957,-140.258 41.576,-50.239 66.565,-114.706 66.565,-185.011 0,-56.848 -16.351,-109.871 -44.584,-154.65 54.009,-66.646 136.51,-109.261 228.976,-109.261 162.697,0 294.59,131.893 294.59,294.59 C 294.59,-131.892 162.697,0 0,0"
             style="fill:#3f8f85;fill-opacity:1;fill-rule:nonzero;stroke:none"
             id="path82"
             inkscape:connector-curvature="0" /></g><g
           id="g84"><g
             id="g86" /><g
             id="g98"><g
               clip-path="url(#clipPath90)"
               id="g96"
               style="opacity:0.60000598"><g
                 transform="translate(320.0839,799.4374)"
                 id="g94"><path
                   d="m 0,0 c -27.661,-44.884 -43.633,-97.74 -43.633,-154.332 0,-70.231 24.592,-134.71 65.613,-185.33 28.234,44.779 44.585,97.802 44.585,154.65 C 66.565,-114.706 41.576,-50.239 0,0"
                   style="fill:#1f2c52;fill-opacity:1;fill-rule:nonzero;stroke:none"
                   id="path92"
                   inkscape:connector-curvature="0" /></g></g></g></g><g
           id="g100"
           transform="translate(320.0839,799.4374)"><path
             d="m 0,0 c -27.661,-44.884 -43.633,-97.74 -43.633,-154.332 0,-70.231 24.592,-134.71 65.613,-185.33 28.234,44.779 44.585,97.802 44.585,154.65 C 66.565,-114.706 41.576,-50.239 0,0"
             style="fill:#c1a33a;fill-opacity:1;fill-rule:nonzero;stroke:none"
             id="path102"
             inkscape:connector-curvature="0" /></g></g></g></g></svg>